<svg version="1.2" baseProfile="tiny-ps" xmlns="http://www.w3.org/2000/svg" viewBox="0 0 1358 282" width="1358" height="282">
	<title>LOGO-01-svg</title>
	<style>
		tspan { white-space:pre }
		.shp0 { fill: #4285f4 } 
		.shp1 { fill: #fbb317 } 
		.shp2 { fill: #ef4434 } 
		.shp3 { fill: #33a950 } 
	</style>
	<path id="Layer" class="shp0" d="M260.81 141.19C241.88 153.67 225.38 170.3 209.6 186.37C200.28 195.83 191.68 206.73 180.92 214.76C164.66 227.19 144.1 232.59 123.83 229.76C103.56 226.93 85.27 216.1 73.04 199.69C60.81 183.28 55.66 162.66 58.73 142.42C61.81 122.19 72.86 104.03 89.42 92C92.26 89.9 95.25 87.99 98.35 86.29C101.45 84.6 104.67 83.11 107.97 81.86C111.28 80.6 114.66 79.57 118.11 78.77C121.55 77.97 125.05 77.41 128.57 77.09L128.57 92.72L195.26 54.14L128.43 15.56L128.43 34.06C64.43 38.65 13.97 90.86 13.97 154.54C13.97 221.23 69.34 275.44 137.75 275.44C147.13 275.48 156.49 274.47 165.64 272.41C174.8 270.35 183.69 267.26 192.15 263.2C200.61 259.14 208.59 254.14 215.92 248.29C223.26 242.44 229.91 235.78 235.75 228.44C234.29 223.83 233.25 219.09 232.65 214.28C232.06 209.48 231.91 204.63 232.2 199.8C232.49 194.96 233.23 190.17 234.4 185.47C235.58 180.77 237.18 176.19 239.19 171.79C246.77 155.3 270.86 139.45 284.19 127.79C284.19 127.71 266.26 137.6 260.81 141.19Z" />
	<path id="Layer" class="shp1" d="M508.21 35.2L460.88 35.05L460.88 141.19L446.11 141.19L484.55 207.88L523 141.19L508.21 141.19L508.21 76.65C532.79 76.96 555.73 89.02 569.91 109.1C584.09 129.17 587.8 154.83 579.88 178.09C571.97 201.36 553.38 219.43 529.9 226.68C506.41 233.94 480.87 229.51 461.21 214.76C450.45 206.76 441.99 195.98 432.53 186.37C416.61 170.3 400.26 153.67 381.32 141.19C375.83 137.6 363 130.38 363 130.38C376.29 142.12 395.21 155.05 402.83 171.59C404.84 175.99 406.44 180.57 407.62 185.27C408.79 189.97 409.53 194.77 409.82 199.6C410.11 204.43 409.96 209.28 409.37 214.09C408.77 218.89 407.73 223.63 406.27 228.25C412.11 235.59 418.76 242.25 426.1 248.1C433.44 253.95 441.41 258.95 449.87 263.01C458.33 267.07 467.22 270.16 476.38 272.21C485.53 274.27 494.89 275.29 504.27 275.25C572.54 275.25 628.04 221.18 628.04 154.34C628 88.84 575.05 36.77 508.21 35.2Z" />
	<path id="Layer" class="shp0" d="M705.14 19.85L755.48 19.85L755.48 226.09L885 226.09L885 268.4L705.14 268.4L705.14 19.85Z" />
	<path id="Layer" fill-rule="evenodd" class="shp2" d="M1337.27 60.73C1340.29 66.84 1342.56 73.3 1344.01 79.96C1345.47 86.62 1346.1 93.43 1345.9 100.24C1345.71 107.06 1344.67 113.82 1342.83 120.38C1340.99 126.95 1338.35 133.26 1334.97 139.18C1333.43 141.81 1331.73 144.33 1329.87 146.74C1328.01 149.15 1326 151.43 1323.85 153.59C1321.69 155.74 1319.41 157.75 1317 159.61C1314.59 161.47 1312.07 163.17 1309.44 164.71C1296.82 171.74 1279.18 175.32 1256.66 175.32L1244.66 175.32L1244.66 268.4L1199.66 268.4L1199.66 20.1L1256.74 20.1C1279.26 20.1 1296.9 23.68 1309.52 31C1312.52 32.7 1315.39 34.62 1318.1 36.75C1320.81 38.88 1323.36 41.21 1325.72 43.73C1328.07 46.25 1330.23 48.94 1332.18 51.79C1334.13 54.63 1335.86 57.62 1337.35 60.73L1337.27 60.73ZM1293.17 123.4C1298.77 116.66 1301.64 107.91 1301.67 97.44C1301.67 82.67 1296.79 72.63 1286.61 66.75C1280.55 63.59 1271.37 61.87 1259.61 61.87L1244.55 61.87L1244.55 133.73L1259.61 133.73C1275.98 133.73 1287.17 130.29 1293.17 123.4Z" />
	<path id="Layer" fill-rule="evenodd" class="shp3" d="M1026.33 22.86C1042.71 22.86 1058.92 26.09 1074.06 32.35C1089.19 38.62 1102.94 47.81 1114.52 59.39C1126.1 70.97 1135.29 84.71 1141.55 99.84C1147.82 114.98 1151.05 131.19 1151.05 147.57C1151.05 198.02 1120.67 243.5 1074.07 262.8C1027.46 282.11 973.81 271.44 938.14 235.77C902.47 200.11 891.8 146.46 911.1 99.85C930.41 53.25 975.88 22.86 1026.33 22.86ZM1026.33 201.67C1057.87 201.67 1080.19 176.11 1080.19 144.57C1080.19 113.03 1022.58 65.68 1022.58 65.68C1022.58 65.68 972.48 113.04 972.48 144.57C972.48 176.1 994.8 201.67 1026.33 201.67Z" />
	<path id="Layer" fill-rule="evenodd" class="shp2" d="M398.92 199.15C398.92 209.3 396.92 219.35 393.04 228.73C389.15 238.11 383.46 246.63 376.28 253.81C369.1 260.99 360.58 266.68 351.2 270.57C341.82 274.45 331.77 276.45 321.62 276.45C290.35 276.45 262.16 257.62 250.19 228.73C238.22 199.84 244.83 166.59 266.94 144.47C289.06 122.36 322.31 115.75 351.2 127.72C380.09 139.69 398.92 167.88 398.92 199.15ZM321.67 165.61C302.12 165.61 288.29 181.45 288.29 201C288.29 220.55 319.29 249.9 319.29 249.9C319.29 249.9 355 220.55 355 201C355 181.46 341.22 165.61 321.67 165.61Z" />
</svg>